<mxfile host="65bd71144e">
    <diagram id="C5RBs43oDa-KdzZeNtuy" name="Page-1">
        <mxGraphModel dx="979" dy="1831" grid="1" gridSize="10" guides="1" tooltips="1" connect="1" arrows="1" fold="1" page="1" pageScale="1" pageWidth="827" pageHeight="1169" math="0" shadow="0">
            <root>
                <mxCell id="WIyWlLk6GJQsqaUBKTNV-0"/>
                <mxCell id="WIyWlLk6GJQsqaUBKTNV-1" parent="WIyWlLk6GJQsqaUBKTNV-0"/>
                <mxCell id="49" style="edgeStyle=none;html=1;exitX=0.5;exitY=0;exitDx=0;exitDy=0;" edge="1" parent="WIyWlLk6GJQsqaUBKTNV-1" source="15" target="41">
                    <mxGeometry relative="1" as="geometry"/>
                </mxCell>
                <mxCell id="15" value="Medico&amp;nbsp;" style="swimlane;fontStyle=0;childLayout=stackLayout;horizontal=1;startSize=30;horizontalStack=0;resizeParent=1;resizeParentMax=0;resizeLast=0;collapsible=1;marginBottom=0;whiteSpace=wrap;html=1;" vertex="1" parent="WIyWlLk6GJQsqaUBKTNV-1">
                    <mxGeometry x="444" y="-540" width="130" height="180" as="geometry"/>
                </mxCell>
                <mxCell id="16" value="ID medico&amp;nbsp;" style="text;strokeColor=none;fillColor=none;align=left;verticalAlign=middle;spacingLeft=4;spacingRight=4;overflow=hidden;points=[[0,0.5],[1,0.5]];portConstraint=eastwest;rotatable=0;whiteSpace=wrap;html=1;" vertex="1" parent="15">
                    <mxGeometry y="30" width="130" height="30" as="geometry"/>
                </mxCell>
                <mxCell id="17" value="Nombre" style="text;strokeColor=none;fillColor=none;align=left;verticalAlign=middle;spacingLeft=4;spacingRight=4;overflow=hidden;points=[[0,0.5],[1,0.5]];portConstraint=eastwest;rotatable=0;whiteSpace=wrap;html=1;" vertex="1" parent="15">
                    <mxGeometry y="60" width="130" height="30" as="geometry"/>
                </mxCell>
                <mxCell id="18" value="Especialidad" style="text;strokeColor=none;fillColor=none;align=left;verticalAlign=middle;spacingLeft=4;spacingRight=4;overflow=hidden;points=[[0,0.5],[1,0.5]];portConstraint=eastwest;rotatable=0;whiteSpace=wrap;html=1;" vertex="1" parent="15">
                    <mxGeometry y="90" width="130" height="30" as="geometry"/>
                </mxCell>
                <mxCell id="19" value="Num de telefono" style="text;html=1;align=left;verticalAlign=middle;resizable=0;points=[];autosize=1;strokeColor=none;fillColor=none;" vertex="1" parent="15">
                    <mxGeometry y="120" width="130" height="30" as="geometry"/>
                </mxCell>
                <mxCell id="20" value="Horario consultas&amp;nbsp;" style="text;html=1;strokeColor=none;fillColor=none;align=center;verticalAlign=middle;whiteSpace=wrap;rounded=0;" vertex="1" parent="15">
                    <mxGeometry y="150" width="130" height="30" as="geometry"/>
                </mxCell>
                <mxCell id="48" style="edgeStyle=none;html=1;" edge="1" parent="WIyWlLk6GJQsqaUBKTNV-1" source="23" target="41">
                    <mxGeometry relative="1" as="geometry"/>
                </mxCell>
                <mxCell id="23" value="Pasiente&amp;nbsp;" style="swimlane;fontStyle=0;childLayout=stackLayout;horizontal=1;startSize=30;horizontalStack=0;resizeParent=1;resizeParentMax=0;resizeLast=0;collapsible=1;marginBottom=0;whiteSpace=wrap;html=1;" vertex="1" parent="WIyWlLk6GJQsqaUBKTNV-1">
                    <mxGeometry x="350" y="-840" width="140" height="164" as="geometry"/>
                </mxCell>
                <mxCell id="11" value="Edad" style="text;html=1;align=left;verticalAlign=top;resizable=0;points=[];autosize=1;strokeColor=none;fillColor=none;" vertex="1" parent="23">
                    <mxGeometry y="30" width="140" height="30" as="geometry"/>
                </mxCell>
                <mxCell id="2" value="id pasienteÂ " style="text;align=left;verticalAlign=top;spacingLeft=4;spacingRight=4;overflow=hidden;rotatable=0;points=[[0,0.5],[1,0.5]];portConstraint=eastwest;" vertex="1" parent="23">
                    <mxGeometry y="60" width="140" height="26" as="geometry"/>
                </mxCell>
                <mxCell id="9" value="Num. de seguro social&amp;nbsp;" style="text;html=1;align=left;verticalAlign=top;resizable=0;points=[];autosize=1;strokeColor=none;fillColor=none;" vertex="1" parent="23">
                    <mxGeometry y="86" width="140" height="30" as="geometry"/>
                </mxCell>
                <mxCell id="4" value="Genero" style="text;align=left;verticalAlign=top;spacingLeft=4;spacingRight=4;overflow=hidden;rotatable=0;points=[[0,0.5],[1,0.5]];portConstraint=eastwest;rounded=0;shadow=0;html=0;" vertex="1" parent="23">
                    <mxGeometry y="116" width="140" height="22" as="geometry"/>
                </mxCell>
                <mxCell id="3" value="Nombre" style="text;align=left;verticalAlign=top;spacingLeft=4;spacingRight=4;overflow=hidden;rotatable=0;points=[[0,0.5],[1,0.5]];portConstraint=eastwest;rounded=0;shadow=0;html=0;" vertex="1" parent="23">
                    <mxGeometry y="138" width="140" height="26" as="geometry"/>
                </mxCell>
                <mxCell id="50" style="edgeStyle=none;html=1;" edge="1" parent="WIyWlLk6GJQsqaUBKTNV-1" source="27" target="15">
                    <mxGeometry relative="1" as="geometry"/>
                </mxCell>
                <mxCell id="27" value="Departamento" style="swimlane;fontStyle=0;childLayout=stackLayout;horizontal=1;startSize=30;horizontalStack=0;resizeParent=1;resizeParentMax=0;resizeLast=0;collapsible=1;marginBottom=0;whiteSpace=wrap;html=1;" vertex="1" parent="WIyWlLk6GJQsqaUBKTNV-1">
                    <mxGeometry x="124" y="-550" width="140" height="180" as="geometry"/>
                </mxCell>
                <mxCell id="28" value="ID de departamento&amp;nbsp;" style="text;strokeColor=none;fillColor=none;align=left;verticalAlign=middle;spacingLeft=4;spacingRight=4;overflow=hidden;points=[[0,0.5],[1,0.5]];portConstraint=eastwest;rotatable=0;whiteSpace=wrap;html=1;" vertex="1" parent="27">
                    <mxGeometry y="30" width="140" height="30" as="geometry"/>
                </mxCell>
                <mxCell id="29" value="Nom departamento" style="text;strokeColor=none;fillColor=none;align=left;verticalAlign=middle;spacingLeft=4;spacingRight=4;overflow=hidden;points=[[0,0.5],[1,0.5]];portConstraint=eastwest;rotatable=0;whiteSpace=wrap;html=1;" vertex="1" parent="27">
                    <mxGeometry y="60" width="140" height="30" as="geometry"/>
                </mxCell>
                <mxCell id="30" value="Ubicacion&amp;nbsp;" style="text;strokeColor=none;fillColor=none;align=left;verticalAlign=middle;spacingLeft=4;spacingRight=4;overflow=hidden;points=[[0,0.5],[1,0.5]];portConstraint=eastwest;rotatable=0;whiteSpace=wrap;html=1;" vertex="1" parent="27">
                    <mxGeometry y="90" width="140" height="30" as="geometry"/>
                </mxCell>
                <mxCell id="32" value="Telefono" style="text;strokeColor=none;fillColor=none;align=left;verticalAlign=middle;spacingLeft=4;spacingRight=4;overflow=hidden;points=[[0,0.5],[1,0.5]];portConstraint=eastwest;rotatable=0;whiteSpace=wrap;html=1;" vertex="1" parent="27">
                    <mxGeometry y="120" width="140" height="30" as="geometry"/>
                </mxCell>
                <mxCell id="33" value="Departamento jefe" style="text;strokeColor=none;fillColor=none;align=left;verticalAlign=middle;spacingLeft=4;spacingRight=4;overflow=hidden;points=[[0,0.5],[1,0.5]];portConstraint=eastwest;rotatable=0;whiteSpace=wrap;html=1;" vertex="1" parent="27">
                    <mxGeometry y="150" width="140" height="30" as="geometry"/>
                </mxCell>
                <mxCell id="52" style="edgeStyle=none;html=1;" edge="1" parent="WIyWlLk6GJQsqaUBKTNV-1" source="34" target="23">
                    <mxGeometry relative="1" as="geometry"/>
                </mxCell>
                <mxCell id="34" value="Habitacion" style="swimlane;fontStyle=0;childLayout=stackLayout;horizontal=1;startSize=30;horizontalStack=0;resizeParent=1;resizeParentMax=0;resizeLast=0;collapsible=1;marginBottom=0;whiteSpace=wrap;html=1;" vertex="1" parent="WIyWlLk6GJQsqaUBKTNV-1">
                    <mxGeometry x="84" y="-840" width="140" height="180" as="geometry"/>
                </mxCell>
                <mxCell id="35" value="ID habitacion" style="text;strokeColor=none;fillColor=none;align=left;verticalAlign=middle;spacingLeft=4;spacingRight=4;overflow=hidden;points=[[0,0.5],[1,0.5]];portConstraint=eastwest;rotatable=0;whiteSpace=wrap;html=1;" vertex="1" parent="34">
                    <mxGeometry y="30" width="140" height="30" as="geometry"/>
                </mxCell>
                <mxCell id="36" value="Tipo de habitacion" style="text;strokeColor=none;fillColor=none;align=left;verticalAlign=middle;spacingLeft=4;spacingRight=4;overflow=hidden;points=[[0,0.5],[1,0.5]];portConstraint=eastwest;rotatable=0;whiteSpace=wrap;html=1;" vertex="1" parent="34">
                    <mxGeometry y="60" width="140" height="30" as="geometry"/>
                </mxCell>
                <mxCell id="38" value="Piso de habitacion" style="text;strokeColor=none;fillColor=none;align=left;verticalAlign=middle;spacingLeft=4;spacingRight=4;overflow=hidden;points=[[0,0.5],[1,0.5]];portConstraint=eastwest;rotatable=0;whiteSpace=wrap;html=1;" vertex="1" parent="34">
                    <mxGeometry y="90" width="140" height="30" as="geometry"/>
                </mxCell>
                <mxCell id="37" value="Num de habitacion" style="text;strokeColor=none;fillColor=none;align=left;verticalAlign=middle;spacingLeft=4;spacingRight=4;overflow=hidden;points=[[0,0.5],[1,0.5]];portConstraint=eastwest;rotatable=0;whiteSpace=wrap;html=1;" vertex="1" parent="34">
                    <mxGeometry y="120" width="140" height="30" as="geometry"/>
                </mxCell>
                <mxCell id="40" value="Costo por dia&amp;nbsp;" style="text;strokeColor=none;fillColor=none;align=left;verticalAlign=middle;spacingLeft=4;spacingRight=4;overflow=hidden;points=[[0,0.5],[1,0.5]];portConstraint=eastwest;rotatable=0;whiteSpace=wrap;html=1;" vertex="1" parent="34">
                    <mxGeometry y="150" width="140" height="30" as="geometry"/>
                </mxCell>
                <mxCell id="41" value="Historial Medico" style="swimlane;fontStyle=0;childLayout=stackLayout;horizontal=1;startSize=30;horizontalStack=0;resizeParent=1;resizeParentMax=0;resizeLast=0;collapsible=1;marginBottom=0;whiteSpace=wrap;html=1;" vertex="1" parent="WIyWlLk6GJQsqaUBKTNV-1">
                    <mxGeometry x="604" y="-870" width="140" height="180" as="geometry"/>
                </mxCell>
                <mxCell id="42" value="ID historial" style="text;strokeColor=none;fillColor=none;align=left;verticalAlign=middle;spacingLeft=4;spacingRight=4;overflow=hidden;points=[[0,0.5],[1,0.5]];portConstraint=eastwest;rotatable=0;whiteSpace=wrap;html=1;" vertex="1" parent="41">
                    <mxGeometry y="30" width="140" height="30" as="geometry"/>
                </mxCell>
                <mxCell id="43" value="ID pasiente" style="text;strokeColor=none;fillColor=none;align=left;verticalAlign=middle;spacingLeft=4;spacingRight=4;overflow=hidden;points=[[0,0.5],[1,0.5]];portConstraint=eastwest;rotatable=0;whiteSpace=wrap;html=1;" vertex="1" parent="41">
                    <mxGeometry y="60" width="140" height="30" as="geometry"/>
                </mxCell>
                <mxCell id="44" value="Diagnostico" style="text;strokeColor=none;fillColor=none;align=left;verticalAlign=middle;spacingLeft=4;spacingRight=4;overflow=hidden;points=[[0,0.5],[1,0.5]];portConstraint=eastwest;rotatable=0;whiteSpace=wrap;html=1;" vertex="1" parent="41">
                    <mxGeometry y="90" width="140" height="30" as="geometry"/>
                </mxCell>
                <mxCell id="46" value="ID medico" style="text;strokeColor=none;fillColor=none;align=left;verticalAlign=middle;spacingLeft=4;spacingRight=4;overflow=hidden;points=[[0,0.5],[1,0.5]];portConstraint=eastwest;rotatable=0;whiteSpace=wrap;html=1;" vertex="1" parent="41">
                    <mxGeometry y="120" width="140" height="30" as="geometry"/>
                </mxCell>
                <mxCell id="47" value="Tratamiento&amp;nbsp;" style="text;strokeColor=none;fillColor=none;align=left;verticalAlign=middle;spacingLeft=4;spacingRight=4;overflow=hidden;points=[[0,0.5],[1,0.5]];portConstraint=eastwest;rotatable=0;whiteSpace=wrap;html=1;" vertex="1" parent="41">
                    <mxGeometry y="150" width="140" height="30" as="geometry"/>
                </mxCell>
            </root>
        </mxGraphModel>
    </diagram>
</mxfile>